<svg id="Vrstva_1" data-name="Vrstva 1" xmlns="http://www.w3.org/2000/svg" viewBox="0 0 611.35 240.82"><defs><style>.cls-1,.cls-2{fill:#8ae1fc;}.cls-2{font-size:208.55px;font-family:Magneto-Bold, Magneto;font-weight:700;}</style></defs><path class="cls-1" d="M682.21,467.2c-8.76,8-18.43,6.78-27.65,3-9.8-3.87-18.76-4.11-29.11,0-12.88,5.26-19.72,3.73-27.49-3-43.82-42.63-37.35-107.57,12.46-110,12.08.61,20.53,6.31,27.65,6.79,10.57-2,20.7-7.86,32-7.09q20.4,1.56,30.56,15.23c-28,15.89-21.35,50.73,4.35,60.51-5.14,12.76-11.74,25.36-22.8,34.68ZM637.1,356.72c-1.31-18.94,14.94-34.53,33.63-36.06C673.3,342.51,649.71,358.86,637.1,356.72Z" transform="translate(-93.65 -288.66)"/><text class="cls-2" transform="translate(0.14 175.91) scale(0.67 1)">I</text><text class="cls-2" transform="translate(86.47 177.58) scale(0.67 1)">store</text></svg>